STARTFONT 2.1
FONT -FontForge-Shadows Into Light-Book-R-Normal--8-80-72-72-P-33-ISO10646-1
SIZE 8 72 72
FONTBOUNDINGBOX 11 12 -1 -3
COMMENT "Generated by fontforge, http://fontforge.sourceforge.net"
COMMENT "Copyright (c) 2010, Kimberly Geswein (kimberlygeswein.com)"
STARTPROPERTIES 39
FOUNDRY "FontForge"
FAMILY_NAME "Shadows Into Light"
WEIGHT_NAME "Book"
SLANT "R"
SETWIDTH_NAME "Normal"
ADD_STYLE_NAME ""
PIXEL_SIZE 8
POINT_SIZE 80
RESOLUTION_X 72
RESOLUTION_Y 72
SPACING "P"
AVERAGE_WIDTH 33
CHARSET_REGISTRY "ISO10646"
CHARSET_ENCODING "1"
FONTNAME_REGISTRY ""
CHARSET_COLLECTIONS "ISO8859-2 ISO8859-9 ISO8859-4 ISO10646-1"
FONT_NAME "ShadowsIntoLight"
FACE_NAME "Shadows Into Light"
COPYRIGHT "Copyright (c) 2010, Kimberly Geswein (kimberlygeswein.com)"
FONT_VERSION "001.000"
FONT_ASCENT 6
FONT_DESCENT 2
UNDERLINE_POSITION 0
UNDERLINE_THICKNESS 0
X_HEIGHT 4
CAP_HEIGHT 5
RAW_ASCENT 799
RAW_DESCENT 200
NORM_SPACE 4
RELATIVE_WEIGHT 40
RELATIVE_SETWIDTH 50
SUPERSCRIPT_X 0
SUPERSCRIPT_Y 3
SUPERSCRIPT_SIZE 5
SUBSCRIPT_X 0
SUBSCRIPT_Y 1
SUBSCRIPT_SIZE 5
AVG_LOWERCASE_WIDTH 30
AVG_UPPERCASE_WIDTH 38
ENDPROPERTIES
CHARS 352
STARTCHAR space
ENCODING 32
SWIDTH 450 0
DWIDTH 4 0
BBX 1 1 0 0
BITMAP
00
ENDCHAR
STARTCHAR exclam
ENCODING 33
SWIDTH 137 0
DWIDTH 1 0
BBX 1 7 0 0
BITMAP
80
80
80
80
00
00
80
ENDCHAR
STARTCHAR quotedbl
ENCODING 34
SWIDTH 212 0
DWIDTH 2 0
BBX 1 2 0 4
BITMAP
80
80
ENDCHAR
STARTCHAR numbersign
ENCODING 35
SWIDTH 450 0
DWIDTH 4 0
BBX 4 4 0 1
BITMAP
40
E0
70
E0
ENDCHAR
STARTCHAR dollar
ENCODING 36
SWIDTH 445 0
DWIDTH 4 0
BBX 3 7 0 -1
BITMAP
40
60
C0
60
20
60
20
ENDCHAR
STARTCHAR percent
ENCODING 37
SWIDTH 450 0
DWIDTH 4 0
BBX 3 6 0 0
BITMAP
A0
A0
40
60
60
40
ENDCHAR
STARTCHAR ampersand
ENCODING 38
SWIDTH 356 0
DWIDTH 3 0
BBX 3 3 0 1
BITMAP
60
C0
C0
ENDCHAR
STARTCHAR quotesingle
ENCODING 39
SWIDTH 155 0
DWIDTH 1 0
BBX 1 2 0 3
BITMAP
80
80
ENDCHAR
STARTCHAR parenleft
ENCODING 40
SWIDTH 291 0
DWIDTH 2 0
BBX 2 7 0 0
BITMAP
40
40
80
80
80
80
40
ENDCHAR
STARTCHAR parenright
ENCODING 41
SWIDTH 241 0
DWIDTH 2 0
BBX 2 6 0 0
BITMAP
80
40
40
40
40
80
ENDCHAR
STARTCHAR asterisk
ENCODING 42
SWIDTH 481 0
DWIDTH 4 0
BBX 4 4 0 0
BITMAP
E0
70
D0
40
ENDCHAR
STARTCHAR plus
ENCODING 43
SWIDTH 466 0
DWIDTH 4 0
BBX 4 3 0 1
BITMAP
40
F0
40
ENDCHAR
STARTCHAR comma
ENCODING 44
SWIDTH 112 0
DWIDTH 1 0
BBX 1 2 0 -1
BITMAP
80
80
ENDCHAR
STARTCHAR hyphen
ENCODING 45
SWIDTH 399 0
DWIDTH 3 0
BBX 3 2 0 1
BITMAP
20
C0
ENDCHAR
STARTCHAR period
ENCODING 46
SWIDTH 128 0
DWIDTH 1 0
BBX 1 1 0 0
BITMAP
80
ENDCHAR
STARTCHAR slash
ENCODING 47
SWIDTH 306 0
DWIDTH 2 0
BBX 2 7 0 -1
BITMAP
40
40
40
40
80
80
80
ENDCHAR
STARTCHAR zero
ENCODING 48
SWIDTH 308 0
DWIDTH 2 0
BBX 2 4 0 0
BITMAP
C0
C0
C0
40
ENDCHAR
STARTCHAR one
ENCODING 49
SWIDTH 112 0
DWIDTH 1 0
BBX 1 5 0 0
BITMAP
80
80
80
80
80
ENDCHAR
STARTCHAR two
ENCODING 50
SWIDTH 512 0
DWIDTH 4 0
BBX 4 5 0 0
BITMAP
40
A0
20
40
70
ENDCHAR
STARTCHAR three
ENCODING 51
SWIDTH 461 0
DWIDTH 4 0
BBX 4 6 0 0
BITMAP
60
A0
60
10
20
40
ENDCHAR
STARTCHAR four
ENCODING 52
SWIDTH 503 0
DWIDTH 4 0
BBX 4 6 0 0
BITMAP
20
20
60
F0
20
20
ENDCHAR
STARTCHAR five
ENCODING 53
SWIDTH 478 0
DWIDTH 4 0
BBX 4 6 0 0
BITMAP
30
C0
E0
A0
20
40
ENDCHAR
STARTCHAR six
ENCODING 54
SWIDTH 375 0
DWIDTH 3 0
BBX 3 7 0 0
BITMAP
40
80
80
80
E0
A0
C0
ENDCHAR
STARTCHAR seven
ENCODING 55
SWIDTH 458 0
DWIDTH 4 0
BBX 3 6 0 0
BITMAP
E0
20
20
20
20
20
ENDCHAR
STARTCHAR eight
ENCODING 56
SWIDTH 333 0
DWIDTH 3 0
BBX 2 6 0 0
BITMAP
40
C0
C0
40
40
C0
ENDCHAR
STARTCHAR nine
ENCODING 57
SWIDTH 475 0
DWIDTH 4 0
BBX 4 5 0 0
BITMAP
60
D0
90
10
10
ENDCHAR
STARTCHAR colon
ENCODING 58
SWIDTH 120 0
DWIDTH 1 0
BBX 1 2 0 1
BITMAP
80
80
ENDCHAR
STARTCHAR semicolon
ENCODING 59
SWIDTH 121 0
DWIDTH 1 0
BBX 1 3 0 -1
BITMAP
80
80
80
ENDCHAR
STARTCHAR less
ENCODING 60
SWIDTH 409 0
DWIDTH 3 0
BBX 3 4 0 1
BITMAP
20
40
C0
20
ENDCHAR
STARTCHAR equal
ENCODING 61
SWIDTH 433 0
DWIDTH 3 0
BBX 3 2 0 1
BITMAP
E0
E0
ENDCHAR
STARTCHAR greater
ENCODING 62
SWIDTH 450 0
DWIDTH 4 0
BBX 3 4 0 1
BITMAP
C0
20
20
C0
ENDCHAR
STARTCHAR question
ENCODING 63
SWIDTH 445 0
DWIDTH 4 0
BBX 3 7 0 0
BITMAP
E0
20
40
60
00
00
40
ENDCHAR
STARTCHAR at
ENCODING 64
SWIDTH 945 0
DWIDTH 8 0
BBX 7 7 0 0
BITMAP
3C
52
6A
BA
A4
82
7C
ENDCHAR
STARTCHAR A
ENCODING 65
SWIDTH 390 0
DWIDTH 3 0
BBX 4 6 0 0
BITMAP
40
40
C0
B0
E0
A0
ENDCHAR
STARTCHAR B
ENCODING 66
SWIDTH 537 0
DWIDTH 4 0
BBX 4 6 0 0
BITMAP
60
A0
70
90
A0
40
ENDCHAR
STARTCHAR C
ENCODING 67
SWIDTH 487 0
DWIDTH 4 0
BBX 4 6 0 0
BITMAP
60
40
80
80
90
E0
ENDCHAR
STARTCHAR D
ENCODING 68
SWIDTH 554 0
DWIDTH 4 0
BBX 4 6 0 0
BITMAP
60
D0
50
50
60
40
ENDCHAR
STARTCHAR E
ENCODING 69
SWIDTH 474 0
DWIDTH 4 0
BBX 4 6 0 0
BITMAP
E0
80
A0
C0
B0
40
ENDCHAR
STARTCHAR F
ENCODING 70
SWIDTH 428 0
DWIDTH 3 0
BBX 3 6 0 0
BITMAP
20
C0
80
E0
80
80
ENDCHAR
STARTCHAR G
ENCODING 71
SWIDTH 591 0
DWIDTH 5 0
BBX 5 6 0 -1
BITMAP
60
48
B0
90
F0
10
ENDCHAR
STARTCHAR H
ENCODING 72
SWIDTH 424 0
DWIDTH 3 0
BBX 3 5 0 0
BITMAP
A0
A0
E0
A0
A0
ENDCHAR
STARTCHAR I
ENCODING 73
SWIDTH 153 0
DWIDTH 1 0
BBX 1 6 0 0
BITMAP
80
80
80
80
80
80
ENDCHAR
STARTCHAR J
ENCODING 74
SWIDTH 371 0
DWIDTH 3 0
BBX 3 7 0 -1
BITMAP
20
20
20
20
20
A0
40
ENDCHAR
STARTCHAR K
ENCODING 75
SWIDTH 524 0
DWIDTH 4 0
BBX 4 5 0 0
BITMAP
A0
C0
40
70
40
ENDCHAR
STARTCHAR L
ENCODING 76
SWIDTH 537 0
DWIDTH 4 0
BBX 4 5 0 0
BITMAP
80
80
80
90
E0
ENDCHAR
STARTCHAR M
ENCODING 77
SWIDTH 682 0
DWIDTH 5 0
BBX 5 6 0 0
BITMAP
88
C8
B8
A8
88
88
ENDCHAR
STARTCHAR N
ENCODING 78
SWIDTH 541 0
DWIDTH 4 0
BBX 4 6 0 0
BITMAP
10
90
D0
B0
90
90
ENDCHAR
STARTCHAR O
ENCODING 79
SWIDTH 382 0
DWIDTH 3 0
BBX 3 5 0 0
BITMAP
E0
A0
A0
A0
C0
ENDCHAR
STARTCHAR P
ENCODING 80
SWIDTH 508 0
DWIDTH 4 0
BBX 4 6 0 0
BITMAP
F0
90
60
80
80
80
ENDCHAR
STARTCHAR Q
ENCODING 81
SWIDTH 512 0
DWIDTH 4 0
BBX 4 6 0 0
BITMAP
70
90
90
B0
90
70
ENDCHAR
STARTCHAR R
ENCODING 82
SWIDTH 503 0
DWIDTH 4 0
BBX 4 6 0 0
BITMAP
F0
A0
C0
C0
B0
80
ENDCHAR
STARTCHAR S
ENCODING 83
SWIDTH 541 0
DWIDTH 4 0
BBX 4 6 0 0
BITMAP
60
80
80
E0
10
60
ENDCHAR
STARTCHAR T
ENCODING 84
SWIDTH 595 0
DWIDTH 5 0
BBX 6 6 0 0
BITMAP
3C
E0
20
20
10
10
ENDCHAR
STARTCHAR U
ENCODING 85
SWIDTH 450 0
DWIDTH 4 0
BBX 3 6 0 -1
BITMAP
A0
A0
A0
A0
60
20
ENDCHAR
STARTCHAR V
ENCODING 86
SWIDTH 524 0
DWIDTH 4 0
BBX 4 6 0 0
BITMAP
10
90
90
50
60
20
ENDCHAR
STARTCHAR W
ENCODING 87
SWIDTH 878 0
DWIDTH 7 0
BBX 7 6 0 0
BITMAP
02
92
94
6C
64
64
ENDCHAR
STARTCHAR X
ENCODING 88
SWIDTH 461 0
DWIDTH 4 0
BBX 3 6 0 0
BITMAP
20
A0
40
40
60
A0
ENDCHAR
STARTCHAR Y
ENCODING 89
SWIDTH 483 0
DWIDTH 4 0
BBX 4 6 0 0
BITMAP
10
90
60
20
20
40
ENDCHAR
STARTCHAR Z
ENCODING 90
SWIDTH 670 0
DWIDTH 5 0
BBX 5 5 0 0
BITMAP
F0
20
20
40
F8
ENDCHAR
STARTCHAR bracketleft
ENCODING 91
SWIDTH 470 0
DWIDTH 4 0
BBX 4 10 0 -1
BITMAP
E0
80
80
80
80
80
80
80
80
70
ENDCHAR
STARTCHAR backslash
ENCODING 92
SWIDTH 554 0
DWIDTH 4 0
BBX 4 8 0 0
BITMAP
80
40
40
20
20
20
10
10
ENDCHAR
STARTCHAR bracketright
ENCODING 93
SWIDTH 512 0
DWIDTH 4 0
BBX 4 10 0 -1
BITMAP
F0
10
10
10
10
10
10
10
10
30
ENDCHAR
STARTCHAR asciicircum
ENCODING 94
SWIDTH 390 0
DWIDTH 3 0
BBX 3 2 0 5
BITMAP
E0
A0
ENDCHAR
STARTCHAR underscore
ENCODING 95
SWIDTH 612 0
DWIDTH 5 0
BBX 5 1 0 0
BITMAP
F8
ENDCHAR
STARTCHAR grave
ENCODING 96
SWIDTH 155 0
DWIDTH 1 0
BBX 1 1 0 5
BITMAP
80
ENDCHAR
STARTCHAR a
ENCODING 97
SWIDTH 366 0
DWIDTH 3 0
BBX 3 4 0 0
BITMAP
40
A0
E0
A0
ENDCHAR
STARTCHAR b
ENCODING 98
SWIDTH 442 0
DWIDTH 4 0
BBX 3 7 0 0
BITMAP
80
80
80
E0
A0
A0
C0
ENDCHAR
STARTCHAR c
ENCODING 99
SWIDTH 390 0
DWIDTH 3 0
BBX 3 5 0 0
BITMAP
40
C0
80
A0
E0
ENDCHAR
STARTCHAR d
ENCODING 100
SWIDTH 316 0
DWIDTH 3 0
BBX 2 8 0 -1
BITMAP
40
40
40
C0
C0
C0
C0
40
ENDCHAR
STARTCHAR e
ENCODING 101
SWIDTH 461 0
DWIDTH 4 0
BBX 4 4 0 0
BITMAP
60
C0
90
E0
ENDCHAR
STARTCHAR f
ENCODING 102
SWIDTH 345 0
DWIDTH 3 0
BBX 3 7 0 0
BITMAP
40
40
80
60
C0
40
40
ENDCHAR
STARTCHAR g
ENCODING 103
SWIDTH 437 0
DWIDTH 4 0
BBX 3 7 0 -3
BITMAP
60
E0
E0
A0
20
20
60
ENDCHAR
STARTCHAR h
ENCODING 104
SWIDTH 466 0
DWIDTH 4 0
BBX 4 6 0 0
BITMAP
80
80
A0
D0
90
90
ENDCHAR
STARTCHAR i
ENCODING 105
SWIDTH 132 0
DWIDTH 1 0
BBX 1 6 0 0
BITMAP
80
80
80
80
80
80
ENDCHAR
STARTCHAR j
ENCODING 106
SWIDTH 112 0
DWIDTH 1 0
BBX 2 9 -1 -3
BITMAP
40
00
40
40
40
40
40
40
80
ENDCHAR
STARTCHAR k
ENCODING 107
SWIDTH 428 0
DWIDTH 3 0
BBX 3 6 0 0
BITMAP
80
A0
A0
C0
80
E0
ENDCHAR
STARTCHAR l
ENCODING 108
SWIDTH 137 0
DWIDTH 1 0
BBX 1 7 0 0
BITMAP
80
80
80
80
80
80
80
ENDCHAR
STARTCHAR m
ENCODING 109
SWIDTH 579 0
DWIDTH 5 0
BBX 4 5 0 0
BITMAP
80
D0
B0
B0
90
ENDCHAR
STARTCHAR n
ENCODING 110
SWIDTH 483 0
DWIDTH 4 0
BBX 4 5 0 0
BITMAP
A0
D0
D0
90
90
ENDCHAR
STARTCHAR o
ENCODING 111
SWIDTH 266 0
DWIDTH 2 0
BBX 2 4 0 0
BITMAP
C0
C0
C0
80
ENDCHAR
STARTCHAR p
ENCODING 112
SWIDTH 482 0
DWIDTH 4 0
BBX 4 6 0 -2
BITMAP
F0
90
E0
80
80
80
ENDCHAR
STARTCHAR q
ENCODING 113
SWIDTH 408 0
DWIDTH 3 0
BBX 3 6 0 -2
BITMAP
60
A0
A0
E0
20
20
ENDCHAR
STARTCHAR r
ENCODING 114
SWIDTH 396 0
DWIDTH 3 0
BBX 3 4 0 0
BITMAP
E0
80
80
40
ENDCHAR
STARTCHAR s
ENCODING 115
SWIDTH 366 0
DWIDTH 3 0
BBX 3 4 0 0
BITMAP
40
80
E0
40
ENDCHAR
STARTCHAR t
ENCODING 116
SWIDTH 268 0
DWIDTH 2 0
BBX 2 6 0 0
BITMAP
80
C0
80
80
80
80
ENDCHAR
STARTCHAR u
ENCODING 117
SWIDTH 387 0
DWIDTH 3 0
BBX 3 4 0 0
BITMAP
A0
A0
A0
60
ENDCHAR
STARTCHAR v
ENCODING 118
SWIDTH 354 0
DWIDTH 3 0
BBX 3 4 0 0
BITMAP
20
A0
60
20
ENDCHAR
STARTCHAR w
ENCODING 119
SWIDTH 566 0
DWIDTH 5 0
BBX 4 4 0 0
BITMAP
B0
F0
50
50
ENDCHAR
STARTCHAR x
ENCODING 120
SWIDTH 454 0
DWIDTH 4 0
BBX 3 6 0 -1
BITMAP
20
A0
40
60
60
40
ENDCHAR
STARTCHAR y
ENCODING 121
SWIDTH 363 0
DWIDTH 3 0
BBX 3 7 0 -3
BITMAP
A0
A0
60
20
20
20
20
ENDCHAR
STARTCHAR z
ENCODING 122
SWIDTH 618 0
DWIDTH 5 0
BBX 5 4 0 0
BITMAP
E0
20
40
78
ENDCHAR
STARTCHAR braceleft
ENCODING 123
SWIDTH 348 0
DWIDTH 3 0
BBX 3 8 0 -1
BITMAP
60
80
40
80
80
80
80
40
ENDCHAR
STARTCHAR bar
ENCODING 124
SWIDTH 137 0
DWIDTH 1 0
BBX 1 7 0 0
BITMAP
80
80
80
80
80
80
80
ENDCHAR
STARTCHAR braceright
ENCODING 125
SWIDTH 348 0
DWIDTH 3 0
BBX 2 8 0 -1
BITMAP
80
40
40
40
40
40
40
C0
ENDCHAR
STARTCHAR asciitilde
ENCODING 126
SWIDTH 458 0
DWIDTH 4 0
BBX 3 2 0 4
BITMAP
E0
20
ENDCHAR
STARTCHAR nonbreakingspace
ENCODING 160
SWIDTH 450 0
DWIDTH 4 0
BBX 1 1 0 0
BITMAP
00
ENDCHAR
STARTCHAR exclamdown
ENCODING 161
SWIDTH 137 0
DWIDTH 1 0
BBX 1 3 0 -1
BITMAP
80
80
80
ENDCHAR
STARTCHAR cent
ENCODING 162
SWIDTH 394 0
DWIDTH 3 0
BBX 3 7 0 -1
BITMAP
40
40
C0
C0
A0
C0
40
ENDCHAR
STARTCHAR sterling
ENCODING 163
SWIDTH 539 0
DWIDTH 4 0
BBX 4 5 0 0
BITMAP
70
60
C0
40
70
ENDCHAR
STARTCHAR currency
ENCODING 164
SWIDTH 500 0
DWIDTH 4 0
BBX 3 4 0 1
BITMAP
60
60
60
E0
ENDCHAR
STARTCHAR yen
ENCODING 165
SWIDTH 478 0
DWIDTH 4 0
BBX 3 6 0 0
BITMAP
60
40
40
60
C0
40
ENDCHAR
STARTCHAR brokenbar
ENCODING 166
SWIDTH 137 0
DWIDTH 1 0
BBX 1 7 0 0
BITMAP
80
80
80
80
80
80
80
ENDCHAR
STARTCHAR section
ENCODING 167
SWIDTH 366 0
DWIDTH 3 0
BBX 3 6 0 0
BITMAP
40
80
E0
C0
A0
40
ENDCHAR
STARTCHAR dieresis
ENCODING 168
SWIDTH 306 0
DWIDTH 2 0
BBX 2 1 0 5
BITMAP
C0
ENDCHAR
STARTCHAR copyright
ENCODING 169
SWIDTH 485 0
DWIDTH 4 0
BBX 4 5 0 0
BITMAP
70
F0
D0
E0
C0
ENDCHAR
STARTCHAR ordfeminine
ENCODING 170
SWIDTH 227 0
DWIDTH 2 0
BBX 2 2 0 1
BITMAP
80
C0
ENDCHAR
STARTCHAR guillemotleft
ENCODING 171
SWIDTH 652 0
DWIDTH 5 0
BBX 5 4 0 1
BITMAP
38
60
E0
38
ENDCHAR
STARTCHAR logicalnot
ENCODING 172
SWIDTH 539 0
DWIDTH 4 0
BBX 3 2 1 1
BITMAP
E0
20
ENDCHAR
STARTCHAR uni00AD
ENCODING 173
SWIDTH 399 0
DWIDTH 3 0
BBX 3 2 0 1
BITMAP
20
C0
ENDCHAR
STARTCHAR registered
ENCODING 174
SWIDTH 382 0
DWIDTH 3 0
BBX 4 5 0 0
BITMAP
70
F0
D0
B0
E0
ENDCHAR
STARTCHAR macron
ENCODING 175
SWIDTH 399 0
DWIDTH 3 0
BBX 3 1 0 5
BITMAP
E0
ENDCHAR
STARTCHAR degree
ENCODING 176
SWIDTH 201 0
DWIDTH 2 0
BBX 1 1 0 3
BITMAP
80
ENDCHAR
STARTCHAR plusminus
ENCODING 177
SWIDTH 466 0
DWIDTH 4 0
BBX 3 3 0 1
BITMAP
40
60
E0
ENDCHAR
STARTCHAR twosuperior
ENCODING 178
SWIDTH 318 0
DWIDTH 3 0
BBX 2 3 0 1
BITMAP
C0
40
C0
ENDCHAR
STARTCHAR threesuperior
ENCODING 179
SWIDTH 280 0
DWIDTH 2 0
BBX 2 3 0 1
BITMAP
C0
C0
40
ENDCHAR
STARTCHAR acute
ENCODING 180
SWIDTH 155 0
DWIDTH 1 0
BBX 1 1 0 5
BITMAP
80
ENDCHAR
STARTCHAR mu
ENCODING 181
SWIDTH 387 0
DWIDTH 3 0
BBX 3 5 0 -1
BITMAP
A0
A0
A0
C0
80
ENDCHAR
STARTCHAR paragraph
ENCODING 182
SWIDTH 447 0
DWIDTH 4 0
BBX 3 5 0 0
BITMAP
E0
E0
20
20
20
ENDCHAR
STARTCHAR periodcentered
ENCODING 183
SWIDTH 128 0
DWIDTH 1 0
BBX 1 1 0 2
BITMAP
80
ENDCHAR
STARTCHAR cedilla
ENCODING 184
SWIDTH 322 0
DWIDTH 3 0
BBX 2 2 0 -2
BITMAP
80
40
ENDCHAR
STARTCHAR onesuperior
ENCODING 185
SWIDTH 112 0
DWIDTH 1 0
BBX 1 3 0 1
BITMAP
80
80
80
ENDCHAR
STARTCHAR ordmasculine
ENCODING 186
SWIDTH 212 0
DWIDTH 2 0
BBX 2 2 0 1
BITMAP
C0
80
ENDCHAR
STARTCHAR guillemotright
ENCODING 187
SWIDTH 625 0
DWIDTH 5 0
BBX 5 4 0 1
BITMAP
F0
28
30
E0
ENDCHAR
STARTCHAR onequarter
ENCODING 188
SWIDTH 678 0
DWIDTH 5 0
BBX 5 7 0 -1
BITMAP
20
40
D0
F0
D8
90
80
ENDCHAR
STARTCHAR onehalf
ENCODING 189
SWIDTH 693 0
DWIDTH 6 0
BBX 5 7 0 -1
BITMAP
20
20
A0
D0
D0
78
80
ENDCHAR
STARTCHAR threequarters
ENCODING 190
SWIDTH 868 0
DWIDTH 7 0
BBX 6 7 0 -1
BITMAP
08
E8
58
34
58
28
20
ENDCHAR
STARTCHAR questiondown
ENCODING 191
SWIDTH 541 0
DWIDTH 4 0
BBX 3 7 1 -1
BITMAP
40
00
80
40
80
80
E0
ENDCHAR
STARTCHAR Agrave
ENCODING 192
SWIDTH 390 0
DWIDTH 3 0
BBX 4 7 0 0
BITMAP
40
40
C0
A0
B0
E0
A0
ENDCHAR
STARTCHAR Aacute
ENCODING 193
SWIDTH 390 0
DWIDTH 3 0
BBX 4 8 0 0
BITMAP
40
00
40
40
C0
B0
E0
A0
ENDCHAR
STARTCHAR Acircumflex
ENCODING 194
SWIDTH 390 0
DWIDTH 3 0
BBX 4 8 0 0
BITMAP
C0
A0
40
40
C0
B0
E0
A0
ENDCHAR
STARTCHAR Atilde
ENCODING 195
SWIDTH 390 0
DWIDTH 3 0
BBX 4 8 0 0
BITMAP
A0
40
40
40
C0
B0
E0
A0
ENDCHAR
STARTCHAR Adieresis
ENCODING 196
SWIDTH 390 0
DWIDTH 3 0
BBX 4 7 0 0
BITMAP
C0
40
40
C0
B0
E0
A0
ENDCHAR
STARTCHAR Aring
ENCODING 197
SWIDTH 390 0
DWIDTH 3 0
BBX 4 7 0 0
BITMAP
C0
40
40
C0
B0
E0
A0
ENDCHAR
STARTCHAR AE
ENCODING 198
SWIDTH 708 0
DWIDTH 6 0
BBX 6 6 0 0
BITMAP
78
60
A8
B0
EC
B0
ENDCHAR
STARTCHAR Ccedilla
ENCODING 199
SWIDTH 487 0
DWIDTH 4 0
BBX 4 9 0 -3
BITMAP
60
40
80
80
90
A0
40
20
40
ENDCHAR
STARTCHAR Egrave
ENCODING 200
SWIDTH 474 0
DWIDTH 4 0
BBX 4 7 0 0
BITMAP
40
E0
80
A0
C0
B0
40
ENDCHAR
STARTCHAR Eacute
ENCODING 201
SWIDTH 474 0
DWIDTH 4 0
BBX 4 7 0 0
BITMAP
20
E0
80
A0
C0
B0
40
ENDCHAR
STARTCHAR Ecircumflex
ENCODING 202
SWIDTH 474 0
DWIDTH 4 0
BBX 4 8 0 0
BITMAP
60
90
E0
80
A0
C0
B0
40
ENDCHAR
STARTCHAR Edieresis
ENCODING 203
SWIDTH 474 0
DWIDTH 4 0
BBX 4 7 0 0
BITMAP
60
E0
80
A0
C0
B0
40
ENDCHAR
STARTCHAR Igrave
ENCODING 204
SWIDTH 153 0
DWIDTH 1 0
BBX 1 8 0 0
BITMAP
80
00
80
80
80
80
80
80
ENDCHAR
STARTCHAR Iacute
ENCODING 205
SWIDTH 153 0
DWIDTH 1 0
BBX 1 8 0 0
BITMAP
80
00
80
80
80
80
80
80
ENDCHAR
STARTCHAR Icircumflex
ENCODING 206
SWIDTH 153 0
DWIDTH 1 0
BBX 3 8 -1 0
BITMAP
60
A0
40
40
40
40
40
40
ENDCHAR
STARTCHAR Idieresis
ENCODING 207
SWIDTH 153 0
DWIDTH 1 0
BBX 2 7 0 0
BITMAP
C0
80
80
80
80
80
80
ENDCHAR
STARTCHAR Eth
ENCODING 208
SWIDTH 554 0
DWIDTH 4 0
BBX 4 6 0 0
BITMAP
60
D0
50
50
E0
40
ENDCHAR
STARTCHAR Ntilde
ENCODING 209
SWIDTH 541 0
DWIDTH 4 0
BBX 4 8 0 0
BITMAP
50
A0
10
90
D0
B0
90
90
ENDCHAR
STARTCHAR Ograve
ENCODING 210
SWIDTH 382 0
DWIDTH 3 0
BBX 3 7 0 0
BITMAP
40
60
A0
A0
A0
A0
C0
ENDCHAR
STARTCHAR Oacute
ENCODING 211
SWIDTH 382 0
DWIDTH 3 0
BBX 3 7 0 0
BITMAP
40
40
A0
A0
A0
A0
C0
ENDCHAR
STARTCHAR Ocircumflex
ENCODING 212
SWIDTH 382 0
DWIDTH 3 0
BBX 3 7 0 0
BITMAP
E0
E0
A0
A0
A0
A0
C0
ENDCHAR
STARTCHAR Otilde
ENCODING 213
SWIDTH 382 0
DWIDTH 3 0
BBX 3 7 0 0
BITMAP
60
E0
A0
A0
A0
A0
C0
ENDCHAR
STARTCHAR Odieresis
ENCODING 214
SWIDTH 382 0
DWIDTH 3 0
BBX 3 6 0 0
BITMAP
60
A0
A0
A0
A0
C0
ENDCHAR
STARTCHAR multiply
ENCODING 215
SWIDTH 454 0
DWIDTH 4 0
BBX 2 3 1 1
BITMAP
C0
80
C0
ENDCHAR
STARTCHAR Oslash
ENCODING 216
SWIDTH 382 0
DWIDTH 3 0
BBX 3 7 0 -1
BITMAP
60
A0
E0
E0
A0
C0
80
ENDCHAR
STARTCHAR Ugrave
ENCODING 217
SWIDTH 450 0
DWIDTH 4 0
BBX 3 7 0 -1
BITMAP
40
A0
A0
A0
A0
60
20
ENDCHAR
STARTCHAR Uacute
ENCODING 218
SWIDTH 450 0
DWIDTH 4 0
BBX 3 7 0 -1
BITMAP
20
E0
A0
A0
A0
60
20
ENDCHAR
STARTCHAR Ucircumflex
ENCODING 219
SWIDTH 450 0
DWIDTH 4 0
BBX 3 8 0 -1
BITMAP
60
A0
A0
A0
A0
A0
60
20
ENDCHAR
STARTCHAR Udieresis
ENCODING 220
SWIDTH 450 0
DWIDTH 4 0
BBX 3 7 0 -1
BITMAP
60
A0
A0
A0
A0
60
20
ENDCHAR
STARTCHAR Yacute
ENCODING 221
SWIDTH 483 0
DWIDTH 4 0
BBX 4 8 0 0
BITMAP
20
00
10
90
60
20
20
40
ENDCHAR
STARTCHAR Thorn
ENCODING 222
SWIDTH 398 0
DWIDTH 3 0
BBX 3 6 0 0
BITMAP
80
E0
A0
E0
80
80
ENDCHAR
STARTCHAR germandbls
ENCODING 223
SWIDTH 537 0
DWIDTH 4 0
BBX 4 6 0 0
BITMAP
60
A0
70
90
A0
40
ENDCHAR
STARTCHAR agrave
ENCODING 224
SWIDTH 366 0
DWIDTH 3 0
BBX 3 6 0 0
BITMAP
40
00
40
A0
E0
A0
ENDCHAR
STARTCHAR aacute
ENCODING 225
SWIDTH 366 0
DWIDTH 3 0
BBX 3 6 0 0
BITMAP
40
00
40
A0
E0
A0
ENDCHAR
STARTCHAR acircumflex
ENCODING 226
SWIDTH 366 0
DWIDTH 3 0
BBX 3 7 0 0
BITMAP
C0
A0
00
40
A0
E0
A0
ENDCHAR
STARTCHAR atilde
ENCODING 227
SWIDTH 366 0
DWIDTH 3 0
BBX 3 6 0 0
BITMAP
E0
20
40
A0
E0
A0
ENDCHAR
STARTCHAR adieresis
ENCODING 228
SWIDTH 366 0
DWIDTH 3 0
BBX 3 6 0 0
BITMAP
C0
00
40
A0
E0
A0
ENDCHAR
STARTCHAR aring
ENCODING 229
SWIDTH 366 0
DWIDTH 3 0
BBX 3 5 0 0
BITMAP
E0
40
A0
E0
A0
ENDCHAR
STARTCHAR ae
ENCODING 230
SWIDTH 705 0
DWIDTH 6 0
BBX 6 4 0 0
BITMAP
78
B4
E8
B0
ENDCHAR
STARTCHAR ccedilla
ENCODING 231
SWIDTH 390 0
DWIDTH 3 0
BBX 3 7 0 -2
BITMAP
40
C0
80
A0
A0
40
60
ENDCHAR
STARTCHAR egrave
ENCODING 232
SWIDTH 461 0
DWIDTH 4 0
BBX 4 6 0 0
BITMAP
40
00
60
C0
90
E0
ENDCHAR
STARTCHAR eacute
ENCODING 233
SWIDTH 461 0
DWIDTH 4 0
BBX 4 6 0 0
BITMAP
20
00
60
C0
90
E0
ENDCHAR
STARTCHAR ecircumflex
ENCODING 234
SWIDTH 461 0
DWIDTH 4 0
BBX 4 7 0 0
BITMAP
60
A0
00
60
C0
90
E0
ENDCHAR
STARTCHAR edieresis
ENCODING 235
SWIDTH 461 0
DWIDTH 4 0
BBX 4 6 0 0
BITMAP
60
00
60
C0
90
E0
ENDCHAR
STARTCHAR igrave
ENCODING 236
SWIDTH 132 0
DWIDTH 1 0
BBX 1 7 0 0
BITMAP
80
80
80
80
80
80
80
ENDCHAR
STARTCHAR iacute
ENCODING 237
SWIDTH 132 0
DWIDTH 1 0
BBX 1 7 0 0
BITMAP
80
00
80
80
80
80
80
ENDCHAR
STARTCHAR icircumflex
ENCODING 238
SWIDTH 132 0
DWIDTH 1 0
BBX 3 7 -1 0
BITMAP
E0
A0
40
40
40
40
40
ENDCHAR
STARTCHAR idieresis
ENCODING 239
SWIDTH 132 0
DWIDTH 1 0
BBX 1 6 0 0
BITMAP
80
80
80
80
80
80
ENDCHAR
STARTCHAR eth
ENCODING 240
SWIDTH 481 0
DWIDTH 4 0
BBX 3 5 1 0
BITMAP
80
E0
40
C0
C0
ENDCHAR
STARTCHAR ntilde
ENCODING 241
SWIDTH 483 0
DWIDTH 4 0
BBX 4 7 0 0
BITMAP
50
20
A0
D0
D0
90
90
ENDCHAR
STARTCHAR ograve
ENCODING 242
SWIDTH 266 0
DWIDTH 2 0
BBX 2 6 0 0
BITMAP
80
00
C0
C0
C0
80
ENDCHAR
STARTCHAR oacute
ENCODING 243
SWIDTH 266 0
DWIDTH 2 0
BBX 2 6 0 0
BITMAP
40
00
C0
C0
C0
80
ENDCHAR
STARTCHAR ocircumflex
ENCODING 244
SWIDTH 266 0
DWIDTH 2 0
BBX 2 7 0 0
BITMAP
C0
C0
00
C0
C0
C0
80
ENDCHAR
STARTCHAR otilde
ENCODING 245
SWIDTH 266 0
DWIDTH 2 0
BBX 3 6 0 0
BITMAP
A0
40
C0
C0
C0
80
ENDCHAR
STARTCHAR odieresis
ENCODING 246
SWIDTH 266 0
DWIDTH 2 0
BBX 2 6 0 0
BITMAP
C0
00
C0
C0
C0
80
ENDCHAR
STARTCHAR divide
ENCODING 247
SWIDTH 345 0
DWIDTH 3 0
BBX 3 2 0 1
BITMAP
E0
40
ENDCHAR
STARTCHAR oslash
ENCODING 248
SWIDTH 266 0
DWIDTH 2 0
BBX 2 6 0 -1
BITMAP
40
C0
C0
C0
80
80
ENDCHAR
STARTCHAR ugrave
ENCODING 249
SWIDTH 387 0
DWIDTH 3 0
BBX 3 6 0 0
BITMAP
40
00
A0
A0
A0
60
ENDCHAR
STARTCHAR uacute
ENCODING 250
SWIDTH 387 0
DWIDTH 3 0
BBX 3 6 0 0
BITMAP
40
00
A0
A0
A0
60
ENDCHAR
STARTCHAR ucircumflex
ENCODING 251
SWIDTH 387 0
DWIDTH 3 0
BBX 3 7 0 0
BITMAP
E0
A0
00
A0
A0
A0
60
ENDCHAR
STARTCHAR udieresis
ENCODING 252
SWIDTH 387 0
DWIDTH 3 0
BBX 3 6 0 0
BITMAP
40
00
A0
A0
A0
60
ENDCHAR
STARTCHAR yacute
ENCODING 253
SWIDTH 363 0
DWIDTH 3 0
BBX 3 9 0 -3
BITMAP
40
00
A0
A0
60
20
20
20
20
ENDCHAR
STARTCHAR thorn
ENCODING 254
SWIDTH 439 0
DWIDTH 4 0
BBX 3 5 0 0
BITMAP
E0
A0
C0
80
80
ENDCHAR
STARTCHAR ydieresis
ENCODING 255
SWIDTH 363 0
DWIDTH 3 0
BBX 3 9 0 -3
BITMAP
C0
00
A0
A0
60
20
20
20
20
ENDCHAR
STARTCHAR Amacron
ENCODING 256
SWIDTH 390 0
DWIDTH 3 0
BBX 4 7 0 0
BITMAP
E0
40
40
C0
B0
E0
A0
ENDCHAR
STARTCHAR amacron
ENCODING 257
SWIDTH 366 0
DWIDTH 3 0
BBX 3 6 0 0
BITMAP
E0
00
40
A0
E0
A0
ENDCHAR
STARTCHAR Abreve
ENCODING 258
SWIDTH 390 0
DWIDTH 3 0
BBX 4 8 0 0
BITMAP
E0
00
40
40
C0
B0
E0
A0
ENDCHAR
STARTCHAR abreve
ENCODING 259
SWIDTH 366 0
DWIDTH 3 0
BBX 3 6 0 0
BITMAP
E0
00
40
A0
E0
A0
ENDCHAR
STARTCHAR Aogonek
ENCODING 260
SWIDTH 390 0
DWIDTH 3 0
BBX 4 8 0 -2
BITMAP
40
40
C0
B0
E0
A0
20
30
ENDCHAR
STARTCHAR aogonek
ENCODING 261
SWIDTH 366 0
DWIDTH 3 0
BBX 4 6 0 -2
BITMAP
40
A0
E0
A0
40
30
ENDCHAR
STARTCHAR Cacute
ENCODING 262
SWIDTH 487 0
DWIDTH 4 0
BBX 4 7 0 0
BITMAP
20
60
40
80
80
90
E0
ENDCHAR
STARTCHAR cacute
ENCODING 263
SWIDTH 390 0
DWIDTH 3 0
BBX 3 7 0 0
BITMAP
40
00
40
C0
80
A0
E0
ENDCHAR
STARTCHAR Ccircumflex
ENCODING 264
SWIDTH 487 0
DWIDTH 4 0
BBX 4 8 0 0
BITMAP
60
90
60
40
80
80
90
E0
ENDCHAR
STARTCHAR ccircumflex
ENCODING 265
SWIDTH 390 0
DWIDTH 3 0
BBX 3 7 0 0
BITMAP
E0
A0
40
C0
80
A0
E0
ENDCHAR
STARTCHAR Cdotaccent
ENCODING 266
SWIDTH 487 0
DWIDTH 4 0
BBX 4 7 0 0
BITMAP
40
60
40
80
80
90
E0
ENDCHAR
STARTCHAR cdotaccent
ENCODING 267
SWIDTH 390 0
DWIDTH 3 0
BBX 3 6 0 0
BITMAP
40
40
C0
80
A0
E0
ENDCHAR
STARTCHAR Ccaron
ENCODING 268
SWIDTH 487 0
DWIDTH 4 0
BBX 4 7 0 0
BITMAP
60
60
40
80
80
90
E0
ENDCHAR
STARTCHAR ccaron
ENCODING 269
SWIDTH 390 0
DWIDTH 3 0
BBX 3 6 0 0
BITMAP
E0
40
C0
80
A0
E0
ENDCHAR
STARTCHAR Dcaron
ENCODING 270
SWIDTH 554 0
DWIDTH 4 0
BBX 4 7 0 0
BITMAP
70
60
D0
50
50
60
40
ENDCHAR
STARTCHAR Emacron
ENCODING 274
SWIDTH 474 0
DWIDTH 4 0
BBX 4 7 0 0
BITMAP
E0
E0
80
A0
C0
B0
40
ENDCHAR
STARTCHAR emacron
ENCODING 275
SWIDTH 461 0
DWIDTH 4 0
BBX 4 6 0 0
BITMAP
E0
00
60
C0
90
E0
ENDCHAR
STARTCHAR Ebreve
ENCODING 276
SWIDTH 474 0
DWIDTH 4 0
BBX 4 7 0 0
BITMAP
60
E0
80
A0
C0
B0
40
ENDCHAR
STARTCHAR ebreve
ENCODING 277
SWIDTH 461 0
DWIDTH 4 0
BBX 4 6 0 0
BITMAP
60
00
60
C0
90
E0
ENDCHAR
STARTCHAR Edotaccent
ENCODING 278
SWIDTH 474 0
DWIDTH 4 0
BBX 4 7 0 0
BITMAP
40
E0
80
A0
C0
B0
40
ENDCHAR
STARTCHAR edotaccent
ENCODING 279
SWIDTH 461 0
DWIDTH 4 0
BBX 4 5 0 0
BITMAP
40
60
C0
90
E0
ENDCHAR
STARTCHAR Eogonek
ENCODING 280
SWIDTH 474 0
DWIDTH 4 0
BBX 4 7 0 -1
BITMAP
E0
80
A0
C0
B0
40
30
ENDCHAR
STARTCHAR eogonek
ENCODING 281
SWIDTH 461 0
DWIDTH 4 0
BBX 4 6 0 -2
BITMAP
60
C0
90
A0
40
60
ENDCHAR
STARTCHAR Ecaron
ENCODING 282
SWIDTH 474 0
DWIDTH 4 0
BBX 4 7 0 0
BITMAP
E0
E0
80
A0
C0
B0
40
ENDCHAR
STARTCHAR ecaron
ENCODING 283
SWIDTH 461 0
DWIDTH 4 0
BBX 4 6 0 0
BITMAP
60
00
60
C0
90
E0
ENDCHAR
STARTCHAR Gcircumflex
ENCODING 284
SWIDTH 591 0
DWIDTH 5 0
BBX 5 8 0 -1
BITMAP
60
50
60
48
B0
90
F0
10
ENDCHAR
STARTCHAR gcircumflex
ENCODING 285
SWIDTH 437 0
DWIDTH 4 0
BBX 3 10 0 -3
BITMAP
40
A0
00
60
E0
E0
A0
20
20
60
ENDCHAR
STARTCHAR Gbreve
ENCODING 286
SWIDTH 591 0
DWIDTH 5 0
BBX 5 8 0 -1
BITMAP
70
00
60
48
B0
90
F0
10
ENDCHAR
STARTCHAR gbreve
ENCODING 287
SWIDTH 437 0
DWIDTH 4 0
BBX 3 10 0 -3
BITMAP
60
00
00
60
E0
E0
A0
20
20
60
ENDCHAR
STARTCHAR Gdotaccent
ENCODING 288
SWIDTH 591 0
DWIDTH 5 0
BBX 5 8 0 -1
BITMAP
20
00
30
40
98
90
70
10
ENDCHAR
STARTCHAR gdotaccent
ENCODING 289
SWIDTH 437 0
DWIDTH 4 0
BBX 3 8 0 -3
BITMAP
20
60
E0
E0
A0
20
20
60
ENDCHAR
STARTCHAR Gcommaaccent
ENCODING 290
SWIDTH 591 0
DWIDTH 5 0
BBX 5 8 0 -3
BITMAP
60
48
B0
90
F0
10
20
20
ENDCHAR
STARTCHAR Hcircumflex
ENCODING 292
SWIDTH 424 0
DWIDTH 3 0
BBX 3 8 0 0
BITMAP
E0
A0
00
A0
A0
E0
A0
A0
ENDCHAR
STARTCHAR hcircumflex
ENCODING 293
SWIDTH 466 0
DWIDTH 4 0
BBX 4 7 0 0
BITMAP
60
90
80
A0
D0
90
90
ENDCHAR
STARTCHAR Hbar
ENCODING 294
SWIDTH 424 0
DWIDTH 3 0
BBX 3 5 0 0
BITMAP
A0
E0
E0
A0
A0
ENDCHAR
STARTCHAR hbar
ENCODING 295
SWIDTH 466 0
DWIDTH 4 0
BBX 5 6 -1 0
BITMAP
40
60
D0
68
48
48
ENDCHAR
STARTCHAR Itilde
ENCODING 296
SWIDTH 153 0
DWIDTH 1 0
BBX 3 8 -1 0
BITMAP
E0
20
40
40
40
40
40
40
ENDCHAR
STARTCHAR itilde
ENCODING 297
SWIDTH 132 0
DWIDTH 1 0
BBX 3 6 -1 0
BITMAP
E0
40
40
40
40
40
ENDCHAR
STARTCHAR imacron
ENCODING 299
SWIDTH 132 0
DWIDTH 1 0
BBX 3 6 -1 0
BITMAP
E0
40
40
40
40
40
ENDCHAR
STARTCHAR Ibreve
ENCODING 300
SWIDTH 153 0
DWIDTH 1 0
BBX 2 8 0 0
BITMAP
C0
00
80
80
80
80
80
80
ENDCHAR
STARTCHAR ibreve
ENCODING 301
SWIDTH 132 0
DWIDTH 1 0
BBX 2 6 0 0
BITMAP
C0
80
80
80
80
80
ENDCHAR
STARTCHAR Iogonek
ENCODING 302
SWIDTH 153 0
DWIDTH 1 0
BBX 2 8 0 -2
BITMAP
80
80
80
80
80
80
80
C0
ENDCHAR
STARTCHAR iogonek
ENCODING 303
SWIDTH 132 0
DWIDTH 1 0
BBX 2 8 0 -2
BITMAP
80
80
80
80
80
80
80
C0
ENDCHAR
STARTCHAR Idotaccent
ENCODING 304
SWIDTH 153 0
DWIDTH 1 0
BBX 1 7 0 0
BITMAP
80
80
80
80
80
80
80
ENDCHAR
STARTCHAR dotlessi
ENCODING 305
SWIDTH 132 0
DWIDTH 1 0
BBX 1 5 0 0
BITMAP
80
80
80
80
80
ENDCHAR
STARTCHAR Jcircumflex
ENCODING 308
SWIDTH 371 0
DWIDTH 3 0
BBX 3 8 0 -1
BITMAP
60
A0
20
20
20
20
A0
40
ENDCHAR
STARTCHAR jcircumflex
ENCODING 309
SWIDTH 112 0
DWIDTH 1 0
BBX 3 10 -1 -3
BITMAP
C0
A0
00
40
40
40
40
40
40
80
ENDCHAR
STARTCHAR Kcommaaccent
ENCODING 310
SWIDTH 524 0
DWIDTH 4 0
BBX 4 8 0 -3
BITMAP
A0
C0
40
70
40
00
20
40
ENDCHAR
STARTCHAR kcommaaccent
ENCODING 311
SWIDTH 428 0
DWIDTH 3 0
BBX 3 9 0 -3
BITMAP
80
A0
A0
C0
80
E0
00
40
40
ENDCHAR
STARTCHAR Lacute
ENCODING 313
SWIDTH 537 0
DWIDTH 4 0
BBX 4 6 0 0
BITMAP
20
80
80
80
90
E0
ENDCHAR
STARTCHAR lacute
ENCODING 314
SWIDTH 137 0
DWIDTH 1 0
BBX 1 9 0 0
BITMAP
80
00
80
80
80
80
80
80
80
ENDCHAR
STARTCHAR Lcommaaccent
ENCODING 315
SWIDTH 537 0
DWIDTH 4 0
BBX 4 8 0 -3
BITMAP
80
80
80
90
E0
00
20
20
ENDCHAR
STARTCHAR lcommaaccent
ENCODING 316
SWIDTH 137 0
DWIDTH 1 0
BBX 1 10 0 -3
BITMAP
80
80
80
80
80
80
80
00
80
80
ENDCHAR
STARTCHAR Lcaron
ENCODING 317
SWIDTH 537 0
DWIDTH 4 0
BBX 4 7 0 0
BITMAP
E0
00
80
80
80
90
E0
ENDCHAR
STARTCHAR Ldot
ENCODING 319
SWIDTH 537 0
DWIDTH 4 0
BBX 4 5 0 0
BITMAP
80
80
80
90
E0
ENDCHAR
STARTCHAR ldot
ENCODING 320
SWIDTH 267 0
DWIDTH 2 0
BBX 2 7 0 0
BITMAP
80
80
80
80
80
C0
80
ENDCHAR
STARTCHAR Lslash
ENCODING 321
SWIDTH 537 0
DWIDTH 4 0
BBX 4 5 0 0
BITMAP
80
80
E0
90
E0
ENDCHAR
STARTCHAR lslash
ENCODING 322
SWIDTH 137 0
DWIDTH 1 0
BBX 3 7 -1 0
BITMAP
40
40
40
40
60
C0
40
ENDCHAR
STARTCHAR Nacute
ENCODING 323
SWIDTH 541 0
DWIDTH 4 0
BBX 4 7 0 0
BITMAP
20
50
90
D0
B0
90
90
ENDCHAR
STARTCHAR nacute
ENCODING 324
SWIDTH 483 0
DWIDTH 4 0
BBX 4 6 0 0
BITMAP
20
E0
D0
D0
90
90
ENDCHAR
STARTCHAR Ncommaaccent
ENCODING 325
SWIDTH 541 0
DWIDTH 4 0
BBX 4 9 0 -3
BITMAP
10
90
D0
B0
90
90
00
20
20
ENDCHAR
STARTCHAR ncommaaccent
ENCODING 326
SWIDTH 483 0
DWIDTH 4 0
BBX 4 8 0 -3
BITMAP
A0
D0
D0
90
90
00
40
40
ENDCHAR
STARTCHAR Ncaron
ENCODING 327
SWIDTH 541 0
DWIDTH 4 0
BBX 4 7 0 0
BITMAP
60
10
90
D0
B0
90
90
ENDCHAR
STARTCHAR ncaron
ENCODING 328
SWIDTH 483 0
DWIDTH 4 0
BBX 4 6 0 0
BITMAP
60
A0
D0
D0
90
90
ENDCHAR
STARTCHAR napostrophe
ENCODING 329
SWIDTH 483 0
DWIDTH 4 0
BBX 4 7 0 0
BITMAP
40
40
A0
D0
D0
90
90
ENDCHAR
STARTCHAR Omacron
ENCODING 332
SWIDTH 382 0
DWIDTH 3 0
BBX 3 6 0 0
BITMAP
E0
A0
A0
A0
A0
C0
ENDCHAR
STARTCHAR omacron
ENCODING 333
SWIDTH 266 0
DWIDTH 2 0
BBX 3 6 0 0
BITMAP
E0
00
C0
C0
C0
80
ENDCHAR
STARTCHAR Obreve
ENCODING 334
SWIDTH 382 0
DWIDTH 3 0
BBX 3 7 0 0
BITMAP
A0
40
A0
A0
A0
A0
C0
ENDCHAR
STARTCHAR obreve
ENCODING 335
SWIDTH 266 0
DWIDTH 2 0
BBX 2 6 0 0
BITMAP
C0
00
C0
C0
C0
80
ENDCHAR
STARTCHAR Ohungarumlaut
ENCODING 336
SWIDTH 382 0
DWIDTH 3 0
BBX 3 7 0 0
BITMAP
20
40
A0
A0
A0
A0
C0
ENDCHAR
STARTCHAR ohungarumlaut
ENCODING 337
SWIDTH 266 0
DWIDTH 2 0
BBX 2 6 0 0
BITMAP
C0
00
C0
C0
C0
80
ENDCHAR
STARTCHAR OE
ENCODING 338
SWIDTH 732 0
DWIDTH 6 0
BBX 6 6 0 0
BITMAP
68
B0
A8
B0
AC
D0
ENDCHAR
STARTCHAR oe
ENCODING 339
SWIDTH 628 0
DWIDTH 5 0
BBX 5 4 0 0
BITMAP
F8
B0
C8
B0
ENDCHAR
STARTCHAR Racute
ENCODING 340
SWIDTH 503 0
DWIDTH 4 0
BBX 4 8 0 0
BITMAP
20
00
F0
A0
C0
C0
B0
80
ENDCHAR
STARTCHAR racute
ENCODING 341
SWIDTH 396 0
DWIDTH 3 0
BBX 3 6 0 0
BITMAP
40
00
E0
80
80
40
ENDCHAR
STARTCHAR Rcommaaccent
ENCODING 342
SWIDTH 503 0
DWIDTH 4 0
BBX 4 9 0 -3
BITMAP
F0
A0
C0
C0
B0
80
00
40
40
ENDCHAR
STARTCHAR rcommaaccent
ENCODING 343
SWIDTH 396 0
DWIDTH 3 0
BBX 3 7 0 -3
BITMAP
E0
80
80
40
00
40
40
ENDCHAR
STARTCHAR Rcaron
ENCODING 344
SWIDTH 503 0
DWIDTH 4 0
BBX 4 8 0 0
BITMAP
70
00
F0
A0
C0
C0
B0
80
ENDCHAR
STARTCHAR rcaron
ENCODING 345
SWIDTH 396 0
DWIDTH 3 0
BBX 3 6 0 0
BITMAP
E0
00
E0
80
80
40
ENDCHAR
STARTCHAR Sacute
ENCODING 346
SWIDTH 541 0
DWIDTH 4 0
BBX 4 7 0 0
BITMAP
20
60
80
80
E0
10
60
ENDCHAR
STARTCHAR sacute
ENCODING 347
SWIDTH 366 0
DWIDTH 3 0
BBX 3 6 0 0
BITMAP
40
00
40
80
E0
40
ENDCHAR
STARTCHAR Scircumflex
ENCODING 348
SWIDTH 541 0
DWIDTH 4 0
BBX 4 8 0 0
BITMAP
60
50
60
80
80
E0
10
60
ENDCHAR
STARTCHAR scircumflex
ENCODING 349
SWIDTH 366 0
DWIDTH 3 0
BBX 3 6 0 0
BITMAP
E0
A0
40
80
E0
40
ENDCHAR
STARTCHAR Scedilla
ENCODING 350
SWIDTH 541 0
DWIDTH 4 0
BBX 4 8 0 -2
BITMAP
60
80
80
E0
10
60
20
10
ENDCHAR
STARTCHAR scedilla
ENCODING 351
SWIDTH 366 0
DWIDTH 3 0
BBX 3 7 0 -3
BITMAP
40
80
E0
40
40
20
40
ENDCHAR
STARTCHAR Scaron
ENCODING 352
SWIDTH 541 0
DWIDTH 4 0
BBX 4 7 0 0
BITMAP
70
60
80
80
E0
10
60
ENDCHAR
STARTCHAR scaron
ENCODING 353
SWIDTH 366 0
DWIDTH 3 0
BBX 3 6 0 0
BITMAP
E0
00
40
80
E0
40
ENDCHAR
STARTCHAR Tcommaaccent
ENCODING 354
SWIDTH 595 0
DWIDTH 5 0
BBX 6 9 0 -3
BITMAP
3C
E0
20
20
10
10
00
10
10
ENDCHAR
STARTCHAR tcommaaccent
ENCODING 355
SWIDTH 268 0
DWIDTH 2 0
BBX 2 9 0 -3
BITMAP
80
C0
80
80
80
80
00
40
80
ENDCHAR
STARTCHAR Tcaron
ENCODING 356
SWIDTH 595 0
DWIDTH 5 0
BBX 6 7 0 0
BITMAP
30
3C
E0
20
20
10
10
ENDCHAR
STARTCHAR Tbar
ENCODING 358
SWIDTH 595 0
DWIDTH 5 0
BBX 6 6 0 0
BITMAP
3C
E0
70
20
10
10
ENDCHAR
STARTCHAR Utilde
ENCODING 360
SWIDTH 450 0
DWIDTH 4 0
BBX 3 8 0 -1
BITMAP
60
A0
A0
A0
A0
A0
60
20
ENDCHAR
STARTCHAR utilde
ENCODING 361
SWIDTH 387 0
DWIDTH 3 0
BBX 3 6 0 0
BITMAP
E0
40
A0
A0
A0
60
ENDCHAR
STARTCHAR Umacron
ENCODING 362
SWIDTH 450 0
DWIDTH 4 0
BBX 3 7 0 -1
BITMAP
E0
A0
A0
A0
A0
60
20
ENDCHAR
STARTCHAR umacron
ENCODING 363
SWIDTH 387 0
DWIDTH 3 0
BBX 3 6 0 0
BITMAP
E0
00
A0
A0
A0
60
ENDCHAR
STARTCHAR Ubreve
ENCODING 364
SWIDTH 450 0
DWIDTH 4 0
BBX 3 7 0 -1
BITMAP
60
A0
A0
A0
A0
60
20
ENDCHAR
STARTCHAR ubreve
ENCODING 365
SWIDTH 387 0
DWIDTH 3 0
BBX 3 6 0 0
BITMAP
E0
00
A0
A0
A0
60
ENDCHAR
STARTCHAR Uring
ENCODING 366
SWIDTH 450 0
DWIDTH 4 0
BBX 3 7 0 -1
BITMAP
60
A0
A0
A0
A0
60
20
ENDCHAR
STARTCHAR uring
ENCODING 367
SWIDTH 387 0
DWIDTH 3 0
BBX 3 5 0 0
BITMAP
E0
A0
A0
A0
60
ENDCHAR
STARTCHAR Uhungarumlaut
ENCODING 368
SWIDTH 450 0
DWIDTH 4 0
BBX 3 8 0 -1
BITMAP
60
00
A0
A0
A0
A0
60
20
ENDCHAR
STARTCHAR uhungarumlaut
ENCODING 369
SWIDTH 387 0
DWIDTH 3 0
BBX 3 5 0 0
BITMAP
40
A0
A0
A0
60
ENDCHAR
STARTCHAR Uogonek
ENCODING 370
SWIDTH 450 0
DWIDTH 4 0
BBX 4 7 0 -2
BITMAP
90
A0
A0
A0
50
20
30
ENDCHAR
STARTCHAR uogonek
ENCODING 371
SWIDTH 387 0
DWIDTH 3 0
BBX 4 6 0 -2
BITMAP
A0
A0
A0
60
40
30
ENDCHAR
STARTCHAR Wcircumflex
ENCODING 372
SWIDTH 878 0
DWIDTH 7 0
BBX 7 8 0 0
BITMAP
38
28
02
92
94
6C
64
64
ENDCHAR
STARTCHAR wcircumflex
ENCODING 373
SWIDTH 566 0
DWIDTH 5 0
BBX 4 7 0 0
BITMAP
60
50
00
B0
F0
50
50
ENDCHAR
STARTCHAR Ycircumflex
ENCODING 374
SWIDTH 483 0
DWIDTH 4 0
BBX 4 8 0 0
BITMAP
60
90
10
90
60
20
20
40
ENDCHAR
STARTCHAR ycircumflex
ENCODING 375
SWIDTH 363 0
DWIDTH 3 0
BBX 3 10 0 -3
BITMAP
C0
A0
00
A0
A0
60
20
20
20
20
ENDCHAR
STARTCHAR Ydieresis
ENCODING 376
SWIDTH 483 0
DWIDTH 4 0
BBX 4 6 0 0
BITMAP
70
90
60
20
20
40
ENDCHAR
STARTCHAR Zacute
ENCODING 377
SWIDTH 670 0
DWIDTH 5 0
BBX 5 8 0 0
BITMAP
20
00
E0
10
20
20
40
F8
ENDCHAR
STARTCHAR zacute
ENCODING 378
SWIDTH 618 0
DWIDTH 5 0
BBX 5 6 0 0
BITMAP
20
00
E0
20
40
78
ENDCHAR
STARTCHAR Zdotaccent
ENCODING 379
SWIDTH 670 0
DWIDTH 5 0
BBX 5 7 0 0
BITMAP
20
E0
10
20
20
40
F8
ENDCHAR
STARTCHAR zdotaccent
ENCODING 380
SWIDTH 618 0
DWIDTH 5 0
BBX 5 5 0 0
BITMAP
20
E0
20
40
78
ENDCHAR
STARTCHAR Zcaron
ENCODING 381
SWIDTH 670 0
DWIDTH 5 0
BBX 5 7 0 0
BITMAP
30
E0
10
20
20
40
F8
ENDCHAR
STARTCHAR zcaron
ENCODING 382
SWIDTH 618 0
DWIDTH 5 0
BBX 5 5 0 0
BITMAP
70
E0
20
40
78
ENDCHAR
STARTCHAR florin
ENCODING 402
SWIDTH 345 0
DWIDTH 3 0
BBX 3 9 0 -2
BITMAP
40
40
80
60
C0
40
40
40
C0
ENDCHAR
STARTCHAR AEacute
ENCODING 508
SWIDTH 708 0
DWIDTH 6 0
BBX 6 8 0 0
BITMAP
20
00
78
60
A8
B0
EC
B0
ENDCHAR
STARTCHAR aeacute
ENCODING 509
SWIDTH 705 0
DWIDTH 6 0
BBX 6 6 0 0
BITMAP
10
10
68
B4
E8
B0
ENDCHAR
STARTCHAR Oslashacute
ENCODING 510
SWIDTH 382 0
DWIDTH 3 0
BBX 3 8 0 -1
BITMAP
20
60
A0
E0
E0
A0
C0
80
ENDCHAR
STARTCHAR oslashacute
ENCODING 511
SWIDTH 266 0
DWIDTH 2 0
BBX 2 7 0 -1
BITMAP
40
40
C0
C0
C0
80
80
ENDCHAR
STARTCHAR Scommaaccent
ENCODING 536
SWIDTH 541 0
DWIDTH 4 0
BBX 4 9 0 -3
BITMAP
60
80
80
E0
10
60
00
20
20
ENDCHAR
STARTCHAR scommaaccent
ENCODING 537
SWIDTH 366 0
DWIDTH 3 0
BBX 3 7 0 -3
BITMAP
40
80
E0
40
00
40
40
ENDCHAR
STARTCHAR circumflex
ENCODING 710
SWIDTH 390 0
DWIDTH 3 0
BBX 3 2 0 5
BITMAP
E0
A0
ENDCHAR
STARTCHAR caron
ENCODING 711
SWIDTH 390 0
DWIDTH 3 0
BBX 3 1 0 5
BITMAP
E0
ENDCHAR
STARTCHAR breve
ENCODING 728
SWIDTH 390 0
DWIDTH 3 0
BBX 1 1 1 5
BITMAP
80
ENDCHAR
STARTCHAR dotaccent
ENCODING 729
SWIDTH 128 0
DWIDTH 1 0
BBX 1 1 0 4
BITMAP
80
ENDCHAR
STARTCHAR ring
ENCODING 730
SWIDTH 266 0
DWIDTH 2 0
BBX 2 1 0 4
BITMAP
C0
ENDCHAR
STARTCHAR ogonek
ENCODING 731
SWIDTH 366 0
DWIDTH 3 0
BBX 2 2 1 -2
BITMAP
80
C0
ENDCHAR
STARTCHAR tilde
ENCODING 732
SWIDTH 458 0
DWIDTH 4 0
BBX 3 2 0 4
BITMAP
E0
20
ENDCHAR
STARTCHAR hungarumlaut
ENCODING 733
SWIDTH 239 0
DWIDTH 2 0
BBX 2 1 0 4
BITMAP
C0
ENDCHAR
STARTCHAR Wgrave
ENCODING 7808
SWIDTH 878 0
DWIDTH 7 0
BBX 7 8 0 0
BITMAP
10
00
02
92
94
6C
64
64
ENDCHAR
STARTCHAR wgrave
ENCODING 7809
SWIDTH 566 0
DWIDTH 5 0
BBX 4 6 0 0
BITMAP
40
20
B0
F0
50
50
ENDCHAR
STARTCHAR Wacute
ENCODING 7810
SWIDTH 878 0
DWIDTH 7 0
BBX 7 8 0 0
BITMAP
10
00
02
92
94
6C
64
64
ENDCHAR
STARTCHAR wacute
ENCODING 7811
SWIDTH 566 0
DWIDTH 5 0
BBX 4 6 0 0
BITMAP
20
00
B0
F0
50
50
ENDCHAR
STARTCHAR Wdieresis
ENCODING 7812
SWIDTH 878 0
DWIDTH 7 0
BBX 7 7 0 0
BITMAP
10
02
92
94
6C
64
64
ENDCHAR
STARTCHAR wdieresis
ENCODING 7813
SWIDTH 566 0
DWIDTH 5 0
BBX 4 6 0 0
BITMAP
60
00
B0
F0
50
50
ENDCHAR
STARTCHAR Ygrave
ENCODING 7922
SWIDTH 483 0
DWIDTH 4 0
BBX 4 8 0 0
BITMAP
40
00
10
90
60
20
20
40
ENDCHAR
STARTCHAR ygrave
ENCODING 7923
SWIDTH 363 0
DWIDTH 3 0
BBX 3 9 0 -3
BITMAP
40
00
A0
A0
60
20
20
20
20
ENDCHAR
STARTCHAR endash
ENCODING 8211
SWIDTH 399 0
DWIDTH 3 0
BBX 3 2 0 1
BITMAP
20
C0
ENDCHAR
STARTCHAR emdash
ENCODING 8212
SWIDTH 549 0
DWIDTH 4 0
BBX 4 1 0 1
BITMAP
F0
ENDCHAR
STARTCHAR quoteleft
ENCODING 8216
SWIDTH 155 0
DWIDTH 1 0
BBX 1 2 0 3
BITMAP
80
80
ENDCHAR
STARTCHAR quoteright
ENCODING 8217
SWIDTH 155 0
DWIDTH 1 0
BBX 1 2 0 3
BITMAP
80
80
ENDCHAR
STARTCHAR quotesinglbase
ENCODING 8218
SWIDTH 155 0
DWIDTH 1 0
BBX 1 2 0 0
BITMAP
80
80
ENDCHAR
STARTCHAR quotedblleft
ENCODING 8220
SWIDTH 212 0
DWIDTH 2 0
BBX 1 2 0 4
BITMAP
80
80
ENDCHAR
STARTCHAR quotedblright
ENCODING 8221
SWIDTH 212 0
DWIDTH 2 0
BBX 1 2 0 4
BITMAP
80
80
ENDCHAR
STARTCHAR quotedblbase
ENCODING 8222
SWIDTH 212 0
DWIDTH 2 0
BBX 1 2 0 0
BITMAP
80
80
ENDCHAR
STARTCHAR dagger
ENCODING 8224
SWIDTH 268 0
DWIDTH 2 0
BBX 2 6 0 0
BITMAP
80
C0
80
80
80
80
ENDCHAR
STARTCHAR daggerdbl
ENCODING 8225
SWIDTH 326 0
DWIDTH 3 0
BBX 3 6 0 0
BITMAP
40
40
A0
C0
40
40
ENDCHAR
STARTCHAR bullet
ENCODING 8226
SWIDTH 189 0
DWIDTH 2 0
BBX 1 1 0 2
BITMAP
80
ENDCHAR
STARTCHAR ellipsis
ENCODING 8230
SWIDTH 387 0
DWIDTH 3 0
BBX 3 1 0 0
BITMAP
E0
ENDCHAR
STARTCHAR guilsinglleft
ENCODING 8249
SWIDTH 409 0
DWIDTH 3 0
BBX 3 4 0 1
BITMAP
20
40
C0
20
ENDCHAR
STARTCHAR guilsinglright
ENCODING 8250
SWIDTH 450 0
DWIDTH 4 0
BBX 3 4 0 1
BITMAP
C0
20
20
C0
ENDCHAR
STARTCHAR fraction
ENCODING 8260
SWIDTH 306 0
DWIDTH 2 0
BBX 2 7 0 -1
BITMAP
40
40
40
40
80
80
80
ENDCHAR
STARTCHAR Euro
ENCODING 8364
SWIDTH 589 0
DWIDTH 5 0
BBX 5 6 0 0
BITMAP
30
40
40
E0
88
70
ENDCHAR
STARTCHAR trademark
ENCODING 8482
SWIDTH 1278 0
DWIDTH 10 0
BBX 10 6 0 0
BITMAP
3C40
E680
2680
2540
1440
1440
ENDCHAR
STARTCHAR minus
ENCODING 8722
SWIDTH 358 0
DWIDTH 3 0
BBX 3 1 0 2
BITMAP
E0
ENDCHAR
STARTCHAR commaaccent
ENCODING 63171
SWIDTH 450 0
DWIDTH 4 0
BBX 1 2 1 -3
BITMAP
80
80
ENDCHAR
STARTCHAR fi
ENCODING 64257
SWIDTH 409 0
DWIDTH 3 0
BBX 3 7 0 0
BITMAP
40
60
A0
60
E0
60
60
ENDCHAR
STARTCHAR fl
ENCODING 64258
SWIDTH 416 0
DWIDTH 3 0
BBX 3 7 0 0
BITMAP
60
60
A0
60
E0
60
60
ENDCHAR
STARTCHAR .notdef
ENCODING -1
SWIDTH 450 0
DWIDTH 4 0
BBX 1 1 0 0
BITMAP
00
ENDCHAR
STARTCHAR .null
ENCODING -1
SWIDTH 0 0
DWIDTH 0 0
BBX 1 1 0 0
BITMAP
00
ENDCHAR
STARTCHAR nonmarkingreturn
ENCODING -1
SWIDTH 450 0
DWIDTH 4 0
BBX 1 1 0 0
BITMAP
00
ENDCHAR
ENDFONT
